
<svg xmlns="http://www.w3.org/2000/svg" version="1.1" xmlns:xlink="http://www.w3.org/1999/xlink" xmlns:svgjs="http://svgjs.dev/svgjs" width="2000" height="2000" viewBox="0 0 2000 2000"><g transform="matrix(1,0,0,1,0,0)"><svg viewBox="0 0 280 280" data-background-color="#ffffff" preserveAspectRatio="xMidYMid meet" height="2000" width="2000" xmlns="http://www.w3.org/2000/svg" xmlns:xlink="http://www.w3.org/1999/xlink"><g id="tight-bounds" transform="matrix(1,0,0,1,0,0)"><svg viewBox="0 0 280 280" height="280" width="280"><g><svg viewBox="0 0 280 280" height="280" width="280"><g><svg viewBox="0 0 280 280" height="280" width="280"><g id="textblocktransform"><svg viewBox="0 0 280 280" height="280" width="280" id="textblock"><g><svg viewBox="0 0 280 280" height="280" width="280"><g transform="matrix(1,0,0,1,57.50420886156945,57.50420886156945)"><svg viewBox="0 0 164.9915822768611 164.9915822768611" height="164.9915822768611" width="164.9915822768611"><g><circle r="82" cx="82.49579113843055" cy="82.49579113843055" fill="#471aa0" data-fill-palette-color="accent"></circle><svg xmlns="http://www.w3.org/2000/svg" xmlns:xlink="http://www.w3.org/1999/xlink" version="1.1" x="24.74873734152917" y="24.748737341529164" viewBox="166 26 180 460" style="enable-background:new 0 0 512 512;" xml:space="preserve" height="115.49410759380275" width="115.49410759380275" class="icon-xg-0" data-fill-palette-color="quaternary" id="xg-0"><g fill="#ffffff" data-fill-palette-color="quaternary"><g fill="#ffffff" data-fill-palette-color="quaternary"><path d="M296 176h-80c-27.57 0-50 22.43-50 50s22.43 50 50 50h25c2.761 0 5 2.238 5 5v155c0 27.57 22.43 50 50 50s50-22.43 50-50V226C346 198.43 323.57 176 296 176z" fill="#ffffff" data-fill-palette-color="quaternary"></path><path d="M276 126c27.57 0 50-22.43 50-50s-22.43-50-50-50-50 22.43-50 50S248.43 126 276 126z" fill="#ffffff" data-fill-palette-color="quaternary"></path></g></g></svg></g></svg></g><g><path d="M134.462 0.18l10.471-0.18 0.062 3.609-3.242 0.056 0.354 20.623 3.241-0.056 0.062 3.609-10.47 0.18-0.062-3.61 3.251-0.055-0.353-20.623-3.252 0.056z" fill="#bb84e8" data-fill-palette-color="primary"></path><path d="M135.062 251.979l10.47 0.18-0.062 3.609-3.241-0.056-0.354 20.623 3.241 0.056-0.061 3.609-10.471-0.18 0.062-3.609 3.252 0.056 0.353-20.623-3.251-0.056z" fill="#bb84e8" data-fill-palette-color="primary"></path><path d="M11.502 143.551c0-1.762 1.429-3.191 3.191-3.191 1.762 0 3.191 1.429 3.191 3.191 0 1.762-1.429 3.191-3.191 3.191-1.762 0-3.191-1.429-3.191-3.191z" fill="#bb84e8" data-fill-palette-color="primary"></path><path d="M262.116 143.551c0-1.762 1.429-3.191 3.191-3.191 1.762 0 3.191 1.429 3.191 3.191 0 1.762-1.429 3.191-3.191 3.191-1.762 0-3.191-1.429-3.191-3.191z" fill="#bb84e8" data-fill-palette-color="primary"></path></g></svg></g></svg></g></svg></g><g></g></svg></g><defs></defs></svg><rect width="280" height="280" fill="none" stroke="none" visibility="hidden"></rect></g></svg></g></svg>